# xmcd
#
# Track frame offsets:
#	150
#	15388
#	30053
#	46113
#	58832
#	62584
#	78731
#	94070
#	108060
#	123250
#	135560
#	143694
#	151170
#
# Disc length: 2523 seconds
#
# Revision: 1
# Processed by: cddbd v1.5PL3 Copyright (c) Steve Scherf et al.
# Submitted via: EasyCDDAExtractor 6.5.0.1
#
DISCID=9309d90d
DTITLE=The Blue Junction - The Journey
DYEAR=2004
DGENRE=Blues
TTITLE0=Introduced To The Blues
TTITLE1=The Journey
TTITLE2=Out Of Love
TTITLE3=Going Down To Texas
TTITLE4=El Mercado
TTITLE5=No Reason
TTITLE6=Big Body Brown
TTITLE7=Leave Me Be
TTITLE8=Who's To Trust
TTITLE9=Give It Up Judy
TTITLE10=Peacock Johnny
TTITLE11=There Is You
TTITLE12=Runnin' The Blues
EXTD=
EXTT0=
EXTT1=
EXTT2=
EXTT3=
EXTT4=
EXTT5=
EXTT6=
EXTT7=
EXTT8=
EXTT9=
EXTT10=
EXTT11=
EXTT12=
PLAYORDER=
